<?xml version="1.0" standalone="no"?><!DOCTYPE svg PUBLIC "-//W3C//DTD SVG 1.1//EN" "http://www.w3.org/Graphics/SVG/1.1/DTD/svg11.dtd"><svg t="1654074122992" class="icon" viewBox="0 0 1029 1024" version="1.1" xmlns="http://www.w3.org/2000/svg" p-id="9624" xmlns:xlink="http://www.w3.org/1999/xlink" width="200.9765625" height="200"><defs><style type="text/css">@font-face { font-family: feedback-iconfont; src: url("//at.alicdn.com/t/font_1031158_u69w8yhxdu.woff2?t=1630033759944") format("woff2"), url("//at.alicdn.com/t/font_1031158_u69w8yhxdu.woff?t=1630033759944") format("woff"), url("//at.alicdn.com/t/font_1031158_u69w8yhxdu.ttf?t=1630033759944") format("truetype"); }
</style></defs><path d="M652.288 978.944l-450.56-55.296c-22.528 0-41.984-18.432-41.984-41.984V192.512c0-22.528 18.432-41.984 41.984-41.984l450.56-58.368c22.528 0 41.984 18.432 41.984 41.984v803.84c0 22.528-19.456 40.96-41.984 40.96z" fill="#C8C1DF" p-id="9625"></path><path d="M743.424 939.008h-14.336c-32.768 0-59.392-26.624-59.392-59.392V219.136c0-32.768 26.624-59.392 59.392-59.392h14.336c32.768 0 59.392 26.624 59.392 59.392v660.48c0 32.768-26.624 59.392-59.392 59.392z" fill="#C8C1DF" p-id="9626"></path><path d="M627.712 1009.664h-4.096L143.36 950.272c-39.936-1.024-72.704-33.792-72.704-74.752V137.216c0-39.936 32.768-73.728 72.704-74.752L625.664 0h2.048c40.96 0 74.752 33.792 74.752 74.752v861.184c-1.024 39.936-33.792 73.728-74.752 73.728zM145.408 122.88c-8.192 0-15.36 7.168-15.36 15.36v738.304c0 8.192 7.168 15.36 15.36 15.36h4.096l480.256 58.368c7.168-1.024 13.312-7.168 13.312-14.336V74.752c0-7.168-6.144-14.336-13.312-14.336l-481.28 63.488h-3.072z" fill="#7F4F9C" p-id="9627"></path><path d="M517.12 526.336m-61.44 0a61.44 61.44 0 1 0 122.88 0 61.44 61.44 0 1 0-122.88 0Z" fill="#7F4F9C" p-id="9628"></path><path d="M849.92 386.048c-13.312 0-23.552-10.24-23.552-23.552V122.88h-71.68c-13.312 0-23.552-10.24-23.552-23.552s10.24-23.552 23.552-23.552H849.92c13.312 0 23.552 10.24 23.552 23.552v263.168c0 13.312-11.264 23.552-23.552 23.552zM860.16 1024H747.52c-13.312 0-23.552-10.24-23.552-23.552 0-13.312 10.24-23.552 23.552-23.552h89.088V863.232c0-13.312 10.24-23.552 23.552-23.552s23.552 10.24 23.552 23.552v137.216c0 13.312-10.24 23.552-23.552 23.552zM671.744 555.008h228.352v158.72H671.744z" fill="#7F4F9C" p-id="9629"></path><path d="M851.968 758.784L849.92 515.072 1003.52 634.88z" fill="#7F4F9C" p-id="9630"></path><path d="M851.968 783.36c-3.072 0-7.168-1.024-10.24-2.048-8.192-4.096-13.312-12.288-13.312-21.504l-2.048-243.712c0-9.216 5.12-17.408 13.312-21.504 8.192-4.096 18.432-3.072 25.6 2.048l154.624 119.808c6.144 4.096 9.216 11.264 9.216 18.432s-3.072 14.336-9.216 18.432L867.328 777.216c-5.12 4.096-10.24 6.144-15.36 6.144z m21.504-219.136l1.024 145.408 90.112-73.728-91.136-71.68z" fill="#7F4F9C" p-id="9631"></path></svg>