<?xml version="1.0" standalone="no"?><!DOCTYPE svg PUBLIC "-//W3C//DTD SVG 1.1//EN" "http://www.w3.org/Graphics/SVG/1.1/DTD/svg11.dtd"><svg t="1651241313298" class="icon" viewBox="0 0 1024 1024" version="1.1" xmlns="http://www.w3.org/2000/svg" p-id="9537" xmlns:xlink="http://www.w3.org/1999/xlink" width="200" height="200"><defs><style type="text/css">@font-face { font-family: feedback-iconfont; src: url("//at.alicdn.com/t/font_1031158_u69w8yhxdu.woff2?t=1630033759944") format("woff2"), url("//at.alicdn.com/t/font_1031158_u69w8yhxdu.woff?t=1630033759944") format("woff"), url("//at.alicdn.com/t/font_1031158_u69w8yhxdu.ttf?t=1630033759944") format("truetype"); }
</style></defs><path d="M512 323.2c2.8 0 5.51 0.33 8.29 0.42 4.27-44.08 22.71-84.21 50.88-116.62-9.13-60.88-30.68-111.95-59.17-143-28.49 31.05-50.04 82.12-59.17 142.99 28.18 32.42 46.61 72.55 50.88 116.62 2.78-0.08 5.49-0.41 8.29-0.41z" fill="#95BD65" p-id="9538"></path><path d="M571.17 206.99c-28.18 32.42-46.61 72.55-50.88 116.62 17.78 0.57 35.07 2.94 51.75 6.96 3.13 0.75 6.25 1.53 9.33 2.4 11.22-18.55 25.24-35.37 41.59-49.98 13.03-66.15 53.62-122.28 109.67-155.24-65.1 4.53-122.57 34.5-161.46 79.24zM452.83 206.99c-38.89-44.74-96.35-74.71-161.46-79.24 56.05 32.96 96.65 89.08 109.67 155.24 16.35 14.61 30.37 31.43 41.59 49.98 3.08-0.87 6.2-1.64 9.33-2.4 16.68-4.02 33.97-6.38 51.75-6.96-4.27-44.07-22.71-84.2-50.88-116.62z" fill="#5D985B" p-id="9539"></path><path d="M401.04 282.99c-37.49-33.5-86.85-55.42-141.67-59.24 53.06 31.2 92.38 83.11 107.52 144.66 12.01-8.29 24.83-15.42 38.21-21.59 12.05-5.55 24.57-10.2 37.54-13.85-11.23-18.55-25.25-35.37-41.6-49.98zM622.96 282.99c-16.35 14.61-30.37 31.43-41.59 49.98 12.97 3.65 25.49 8.29 37.54 13.85 13.38 6.17 26.2 13.3 38.21 21.59 15.13-61.55 54.46-113.46 107.52-144.66-54.83 3.82-104.18 25.74-141.68 59.24z" fill="#95BD65" p-id="9540"></path><path d="M560 956.8h-96c-114.88 0-208-93.12-208-208V579.2c0-141.38 114.62-256 256-256s256 114.62 256 256v169.6c0 114.88-93.12 208-208 208z" fill="#FAD757" p-id="9541"></path><path d="M538.7 324.6L512 351.3l-26.7-26.7c-6.64 0.69-13.15 1.81-19.63 3l35.01 35.01-70.66 70.66-64.13-64.13c-4.43 3.09-8.73 6.33-12.95 9.68l65.76 65.76-70.66 70.66-60-59.99c-2.72 4.91-5.12 10.01-7.52 15.11l56.2 56.2-70.66 70.66L256 587.11v42.81l10.09-10.09 70.66 70.66-70.67 70.67-9.96-9.96c0.15 13.19 1.47 26.09 3.96 38.58l6-6 70.66 70.66-30.11 30.11c3.49 4.04 7.03 8.04 10.82 11.81l30.61-30.61 70.67 70.67-12.16 12.16c5.98 1.72 12.04 3.22 18.22 4.4l5.26-5.26 7.15 7.15c8.02 1.03 16.15 1.71 24.43 1.8l-20.26-20.26 70.66-70.67 70.66 70.67-20.26 20.26c8.28-0.09 16.41-0.77 24.43-1.8l7.15-7.15 5.25 5.25c6.19-1.18 12.24-2.69 18.22-4.4l-12.16-12.16 70.67-70.67 30.6 30.6c3.79-3.76 7.33-7.76 10.82-11.81l-30.1-30.1 70.66-70.66 5.98 5.98c2.49-12.48 3.81-25.38 3.96-38.55l-9.95 9.94-70.67-70.67 70.66-70.66 10.05 10.1v-42.78l-10.08 10.08-70.66-70.66 56.19-56.19c-2.4-5.1-4.79-10.2-7.52-15.11l-59.99 59.98-70.66-70.66 65.76-65.76c-4.22-3.35-8.52-6.6-12.95-9.68l-64.12 64.12-70.66-70.66 35.01-35.01c-6.47-1.17-12.97-2.29-19.62-2.98zM430.04 455.89l70.66 70.66-70.66 70.66-70.66-70.66 70.66-70.66z m81.97 223.28l-70.66-70.66 70.66-70.66 70.66 70.66-70.66 70.66z m81.97-59.34l70.66 70.66-70.66 70.66-70.66-70.66 70.66-70.66z m-93.28 70.65l-70.66 70.66-70.66-70.66 70.66-70.66 70.66 70.66z m-223.29-81.96l70.66-70.66 70.66 70.66-70.66 70.66-70.66-70.66z m-0.02 163.95l70.67-70.67 70.66 70.66-70.67 70.67-70.66-70.66zM430.03 925.1l-70.67-70.67 70.67-70.67 70.66 70.67-70.66 70.67z m11.31-152.64L512 701.8l70.66 70.66L512 843.13l-70.66-70.67zM593.98 925.1l-70.66-70.67 70.66-70.67 70.67 70.67-70.67 70.67z m152.64-152.63l-70.66 70.66-70.67-70.67 70.66-70.66 70.67 70.67z m-0.01-163.95l-70.66 70.66-70.66-70.66 70.66-70.66 70.66 70.66z m-81.98-81.97l-70.66 70.66-70.66-70.66 70.66-70.66 70.66 70.66z m-81.96-81.97l-70.66 70.66-70.66-70.66 70.66-70.66 70.66 70.66z" fill="#E6B05D" p-id="9542"></path></svg>