<?xml version="1.0" standalone="no"?><!DOCTYPE svg PUBLIC "-//W3C//DTD SVG 1.1//EN" "http://www.w3.org/Graphics/SVG/1.1/DTD/svg11.dtd"><svg t="1651928110956" class="icon" viewBox="0 0 1024 1024" version="1.1" xmlns="http://www.w3.org/2000/svg" p-id="6299" xmlns:xlink="http://www.w3.org/1999/xlink" width="200" height="200"><defs><style type="text/css">@font-face { font-family: feedback-iconfont; src: url("//at.alicdn.com/t/font_1031158_u69w8yhxdu.woff2?t=1630033759944") format("woff2"), url("//at.alicdn.com/t/font_1031158_u69w8yhxdu.woff?t=1630033759944") format("woff"), url("//at.alicdn.com/t/font_1031158_u69w8yhxdu.ttf?t=1630033759944") format("truetype"); }
</style></defs><path d="M776.86 376.04c-22.05 0-40.16-16.24-43.91-37.98-18.08-104.98-109.79-185.1-219.84-185.1s-201.76 80.13-219.84 185.1c-3.74 21.73-21.85 37.98-43.91 37.98-27.05 0-48.82-24.04-44.44-50.73 24.3-148.16 153.25-261.58 308.19-261.58S796.99 177.15 821.3 325.31c4.38 26.69-17.39 50.73-44.44 50.73zM850.18 418.32H180.33c-37.98 0-68.76 30.79-68.76 68.76v403.71c0 37.98 30.79 68.76 68.76 68.76h665.36c37.97 0 68.75-30.77 68.77-68.74l0.19-408c0.02-35.61-28.85-64.49-64.47-64.49zM557.73 762.56c0 24.64-19.97 44.62-44.62 44.62-24.64 0-44.62-19.97-44.62-44.62v-89.23c0-24.64 19.97-44.62 44.62-44.62 24.64 0 44.62 19.98 44.62 44.62v89.23z" p-id="6300"></path></svg>