<?xml version="1.0" standalone="no"?><!DOCTYPE svg PUBLIC "-//W3C//DTD SVG 1.1//EN" "http://www.w3.org/Graphics/SVG/1.1/DTD/svg11.dtd"><svg t="1651928277433" class="icon" viewBox="0 0 1024 1024" version="1.1" xmlns="http://www.w3.org/2000/svg" p-id="7657" xmlns:xlink="http://www.w3.org/1999/xlink" width="200" height="200"><defs><style type="text/css">@font-face { font-family: feedback-iconfont; src: url("//at.alicdn.com/t/font_1031158_u69w8yhxdu.woff2?t=1630033759944") format("woff2"), url("//at.alicdn.com/t/font_1031158_u69w8yhxdu.woff?t=1630033759944") format("woff"), url("//at.alicdn.com/t/font_1031158_u69w8yhxdu.ttf?t=1630033759944") format("truetype"); }
</style></defs><path d="M691.92 429.76L510.84 610.85a27 27 0 0 1-19.11 7.91h-0.41a27 27 0 0 1-19.27-8.5l-86.49-91.89a27 27 0 1 1 39.36-37.05l67.4 71.6L653.7 391.54a27 27 0 0 1 38.22 38.22z" fill="#142E4F" p-id="7658"></path><path d="M821.56 239.73l-300-113.51a27 27 0 0 0-19.12 0l-300 113.51A27 27 0 0 0 185 265v240c0 72.87 17 139.1 50.53 196.85 26.78 46.12 64 86.7 110.6 120.62 78.55 57.17 156.55 75.6 159.83 76.36a27 27 0 0 0 12.14 0c3.28-0.76 81.28-19.19 159.83-76.36 46.61-33.92 83.82-74.5 110.6-120.62C822 644.12 839 577.89 839 505V265a27 27 0 0 0-17.44-25.27zM386.72 480.16a27 27 0 0 1 38.2 1.16l67.4 71.6L653.7 391.54a27 27 0 0 1 38.22 38.22L510.84 610.85a27 27 0 0 1-19.11 7.91h-0.41a27 27 0 0 1-19.27-8.5l-86.49-91.89a27 27 0 0 1 1.16-38.21z" fill="#142E4F" p-id="7659"></path><path d="M691.92 429.76L510.84 610.85a27 27 0 0 1-19.11 7.91h-0.41a27 27 0 0 1-19.27-8.5l-86.49-91.89a27 27 0 1 1 39.36-37.05l67.4 71.6L653.7 391.54a27 27 0 0 1 38.22 38.22z" fill="#FF9600" p-id="7660"></path></svg>