<?xml version="1.0" standalone="no"?><!DOCTYPE svg PUBLIC "-//W3C//DTD SVG 1.1//EN" "http://www.w3.org/Graphics/SVG/1.1/DTD/svg11.dtd"><svg t="1656920710699" class="icon" viewBox="0 0 1024 1024" version="1.1" xmlns="http://www.w3.org/2000/svg" p-id="5134" xmlns:xlink="http://www.w3.org/1999/xlink" width="200" height="200"><defs><style type="text/css">@font-face { font-family: feedback-iconfont; src: url("//at.alicdn.com/t/font_1031158_u69w8yhxdu.woff2?t=1630033759944") format("woff2"), url("//at.alicdn.com/t/font_1031158_u69w8yhxdu.woff?t=1630033759944") format("woff"), url("//at.alicdn.com/t/font_1031158_u69w8yhxdu.ttf?t=1630033759944") format("truetype"); }
</style></defs><path d="M12.5 12m500 0l0 0q500 0 500 500l0 0q0 500-500 500l0 0q-500 0-500-500l0 0q0-500 500-500Z" fill="#DEE5EC" p-id="5135"></path><path d="M862.41 457a91.73 91.73 0 0 1 0 129.48L636 813a91.53 91.53 0 1 1-129.41-129.51L733 457c35.68-35.48 94-35.48 129.44 0z m0 0" fill="#005EB8" p-id="5136"></path><path d="M706.67 323.61H419.23a11.44 11.44 0 0 1 0-22.87h287.22a11.44 11.44 0 0 1 0.22 22.87zM661.41 442.8H419.23a11.44 11.44 0 0 1 0-22.87h241.94a11.44 11.44 0 0 1 0.24 22.87z m-121 119h-121a11.44 11.44 0 0 1 0-22.87h121a11.32 11.32 0 0 1 11.43 11.44 11.46 11.46 0 0 1-11.42 11.43zM339.19 323.61h-32a11.44 11.44 0 0 1 0-22.87h32a11.44 11.44 0 1 1 0 22.87z m0 119.19h-32a11.44 11.44 0 0 1 0-22.87h32a11.44 11.44 0 1 1 0 22.87z m0 119h-32a11.44 11.44 0 0 1 0-22.87h32a11.44 11.44 0 1 1 0 22.87z m0 0M797.23 737.93a11.33 11.33 0 0 0-11.43 11.44v67.71a34.26 34.26 0 0 1-34.3 34.32h-67a11.44 11.44 0 0 0 0 22.87h67a57.17 57.17 0 0 0 57.16-57.19v-67.71a11.33 11.33 0 0 0-11.43-11.44z" fill="#030B38" p-id="5137"></path><path d="M388.13 851.64h-126a34.27 34.27 0 0 1-34.31-34.32V210.38a34.27 34.27 0 0 1 34.31-34.33H751.5a34.27 34.27 0 0 1 34.3 34.33v122.85a11.43 11.43 0 1 0 22.86 0V210.38a57.18 57.18 0 0 0-57.16-57.2H262.13a57.19 57.19 0 0 0-57.13 57.2v606.7a57.17 57.17 0 0 0 57.17 57.19h126a11.12 11.12 0 0 0 11.43-11.2 11.32 11.32 0 0 0-11.47-11.43z" fill="#030B38" p-id="5138"></path><path d="M307.18 658.09a11.44 11.44 0 0 0 0 22.87h32a11.44 11.44 0 1 0 0-22.87zM937.42 492.23l-110-110c-18.75-18.75-51-17.16-71.8 3.67L452.4 689.2a14.21 14.21 0 0 0-3.2 6.4l-29.95 191.94a11.13 11.13 0 0 0 3.2 9.84 10.67 10.67 0 0 0 8 3.44h1.61l191.85-30a14.16 14.16 0 0 0 6.4-3.2l303.45-303.56a56.66 56.66 0 0 0 16.7-35.92c0.91-13.96-3.66-26.53-13.04-35.91z m-10.08 34.3a34.29 34.29 0 0 1-10.05 21.27L616.57 848.64l-172.65 27 27-172.73 300.47-301.07c11.67-11.66 30-13.26 39.56-3.66l110 110.05c4.57 4.57 6.85 11.2 6.39 18.3z" fill="#030B38" p-id="5139"></path><path d="M460.17 776.13a11.48 11.48 0 0 0-16.24 16.24l88 88.07a10.74 10.74 0 0 0 8 3.44 12 12 0 0 0 8.23-3.44 11.33 11.33 0 0 0 0-16.24zM879.78 601.8l-53.71-53.73c-0.08-0.09-0.15-0.18-0.24-0.27l-0.28-0.25-53.5-53.55-0.19-0.21-0.2-0.18-53.78-53.8a11.49 11.49 0 0 0-16.24 16.25L747.49 502l-229 229.11a11.31 11.31 0 0 0 0 16.24 10.7 10.7 0 0 0 8 3.44 11.45 11.45 0 0 0 8-3.44l229.24-229.16 37.73 37.75-229 229.11a11.31 11.31 0 0 0 0 16.24 10.7 10.7 0 0 0 8 3.44 11.47 11.47 0 0 0 8-3.44l229.23-229.11 45.87 45.88a10.75 10.75 0 0 0 8 3.43 11.57 11.57 0 0 0 8.23-3.44 11.33 11.33 0 0 0-0.01-16.25z" fill="#030B38" p-id="5140"></path></svg>